<svg width="165" height="40" fill="none"><mask id="a" maskUnits="userSpaceOnUse" x="0" y="0" width="31" height="22"><path d="M.033 16.742l21.04.17s4.643.59 8.61 4.073c.225.197 1.108 0 1.108 0L30.684.092.034.127v16.615z" fill="#fff"/></mask><g mask="url(#a)" fill-rule="evenodd" clip-rule="evenodd" fill="#1C1E1D"><path d="M26.322 4.798c-2.503-2.06-5.947-3.093-10.331-3.093H5.068v1.526H15.79c3.727 0 7.102.769 9.162 2.548 2.06 1.78 3.622 4.431 3.622 7.703 0 3.157-1.352 5.497-3.495 7.267-2.143 1.77-5.964 2.55-9.79 2.55H2.972v1.526l12.402-.003c4.615 0 8.22-1.003 10.814-3.005 2.594-2.005 3.89-4.823 3.89-8.458 0-3.645-1.251-6.499-3.756-8.561z"/><path d="M25.396 7.01c-1.557-1.182-3.347-2.134-8.41-2.134-5.462.002-6.13 0-8.425 0v1.488s3.77-.049 8.237 0c4.317.045 5.901.532 7.354 1.607 1.86 1.374 3.012 3.07 3.012 5.444 0 2.288-1.17 3.908-3.039 5.282-1.91 1.408-4.831 1.424-6.02 1.45-.45.012-6.255 0-6.255 0v1.489s2.89.04 4.675-.002c4.098-.092 6.53-.336 8.793-2.018 2.125-1.576 3.25-3.656 3.25-6.29 0-3.476-1.74-5.228-3.172-6.316z"/><path d="M24.644 8.974c-1.17-.733-2.195-1.227-7.033-1.227h-6.056v.98h5.889c4.286 0 5.91.761 6.402 1.063.963.59 2.232 1.55 2.232 3.508 0 1.252-.74 2.822-1.832 3.44-.997.56-2.818 1.063-6.027 1.063H-1.562v.979h19.855c3.868 0 5.195-.43 6.558-1.182 1.368-.753 2.28-2.302 2.28-4.29 0-2.222-1.24-3.554-2.487-4.334z"/></g><path fill-rule="evenodd" clip-rule="evenodd" d="M28.494 19.772c-2.503-2.063-5.949-3.093-10.331-3.093-5.864 0-4.842-.002-7.307-.002v1.526h7.104c3.727 0 7.104.769 9.164 2.548 2.06 1.78 3.62 4.431 3.62 7.705 0 3.155-1.35 5.495-3.493 7.265-2.143 1.77-5.966 2.55-9.792 2.55H5.144v1.526l12.402-.003c4.615 0 8.217-1 10.812-3.005 2.594-2.003 3.892-4.823 3.892-8.456 0-3.647-1.251-6.5-3.756-8.561z" fill="#1C1E1D"/><path fill-rule="evenodd" clip-rule="evenodd" d="M27.569 21.982c-1.558-1.18-3.348-2.134-8.411-2.134-5.464.002-9.158 0-11.453 0v1.488s6.796-.049 11.265 0c4.317.045 5.9.532 7.352 1.607 1.861 1.377 3.014 3.07 3.014 5.444 0 2.288-1.17 3.908-3.039 5.285-1.91 1.405-4.831 1.423-6.022 1.45-.45.009-6.255 0-6.255 0v1.486s2.89.04 4.677 0c4.096-.094 6.53-.337 8.794-2.018 2.122-1.578 3.247-3.658 3.247-6.293 0-3.472-1.737-5.227-3.17-6.315z" fill="#1C1E1D"/><path fill-rule="evenodd" clip-rule="evenodd" d="M10.156 27.032H20.89v-.831H10.156v.831zm4.427 2.908h6.244v-.716h-6.244v.715zm-9.439-2.908h3.18v-.831h-3.18v.831zm-1.982 2.965h9.658v-.83H3.162v.83zm2.38-21.336h3.763v-.686H5.542v.686zM2.92 14.226h8.62v-.798H2.92v.798zm.242 22.279h9.088v-.997H3.162v.997zM.896 39.736h2.273v-1.443H.896v1.443zm5.68-27.946h14.27v-.798H6.577v.798zm7.136 2.436h6.864v-.798h-6.864v.798z" fill="#1C1E1D"/><path fill-rule="evenodd" clip-rule="evenodd" d="M26.816 24.096c-1.171-.708-2.197-1.184-7.033-1.184h-7.716v.945h7.546c4.287 0 5.913.735 6.405 1.028.96.57 2.232 1.495 2.232 3.385 0 1.21-.74 2.724-1.834 3.319-.997.543-2.818 1.028-6.027 1.028H.61v.945l19.853-.002c3.87 0 5.197-.414 6.56-1.14 1.366-.729 2.278-2.224 2.278-4.143 0-2.143-1.238-3.428-2.485-4.181zM47.14 21.96v8.697h4.75c2.054 0 3.647-.393 4.78-1.18 1.131-.787 1.696-1.866 1.696-3.236 0-2.856-2.402-4.281-7.206-4.281h-4.02zm0-10.354v7.806h3.584c1.915 0 3.421-.373 4.518-1.12 1.098-.748 1.647-1.8 1.647-3.161 0-2.349-1.91-3.524-5.73-3.524h-4.02zm-3.5 21.614V9.046h8.5c2.582 0 4.63.511 6.144 1.533 1.513 1.023 2.27 2.355 2.27 3.995 0 1.372-.458 2.563-1.374 3.576-.916 1.01-2.181 1.73-3.79 2.156v.067c2.013.192 3.622.807 4.831 1.846 1.21 1.041 1.813 2.393 1.813 4.056 0 2.067-.917 3.743-2.75 5.023-1.834 1.28-4.144 1.922-6.935 1.922H43.64zm22.29 0h3.415V15.957h-3.414V33.22zm1.75-21.647c-.612 0-1.133-.168-1.562-.505-.43-.338-.645-.764-.645-1.28 0-.519.214-.948.645-1.292.43-.342.95-.514 1.563-.514.623 0 1.155.172 1.593.514.438.344.654.773.654 1.292 0 .493-.216.916-.654 1.262-.438.349-.97.523-1.594.523zm16.769 21.48c-.807.36-1.868.538-3.187.538-3.736 0-5.604-1.685-5.604-5.057V18.317h-3.665v-2.36h3.665v-4.214l3.417-.894v5.108h5.374v2.36h-5.374v9.728c0 1.157.243 1.984.728 2.478.487.494 1.292.742 2.418.742.86 0 1.602-.19 2.228-.575v2.363zm31.015.167h-3.2V18.302c0-1.18.089-2.622.268-4.329h-.076c-.306 1.003-.583 1.72-.825 2.157l-9.39 17.09h-1.571L91.3 16.253c-.268-.497-.543-1.256-.824-2.28H90.4c.103.89.154 2.342.154 4.358v14.89h-3.106V10.98h4.255l8.431 15.508c.653 1.19 1.073 2.078 1.265 2.668h.114c.55-1.22.99-2.13 1.323-2.73l8.603-15.446h4.025v22.24zm17.361-8.733l-5.145.574c-1.584.18-2.777.496-3.584.952-.804.456-1.207 1.263-1.207 2.418 0 .845.371 1.533 1.115 2.067.742.534 1.732.8 2.968.8 1.694 0 3.093-.48 4.197-1.441 1.104-.961 1.656-2.177 1.656-3.65v-1.72zm3.416 8.733h-3.416v-2.697h-.083c-1.486 2.067-3.674 3.101-6.561 3.101-2.125 0-3.788-.455-4.99-1.365-1.2-.91-1.801-2.118-1.801-3.625 0-3.224 2.346-5.101 7.041-5.63l6.394-.725c0-2.934-1.466-4.4-4.396-4.4-2.568 0-4.887.709-6.956 2.123v-2.831c2.096-1.08 4.514-1.618 7.249-1.618 5.012 0 7.519 2.145 7.519 6.44V33.22zm15.853-14.465c-.597-.37-1.459-.556-2.584-.556-1.456 0-2.677.556-3.655 1.67-.979 1.112-1.469 2.63-1.469 4.551v8.8h-3.416V15.958h3.416v3.557h.083c.487-1.216 1.229-2.16 2.23-2.842a5.828 5.828 0 013.352-1.02c.89 0 1.569.079 2.043.237v2.865z" fill="#1C1E1D"/><path fill-rule="evenodd" clip-rule="evenodd" d="M163.989 33.053c-.807.36-1.868.538-3.187.538-3.736 0-5.604-1.685-5.604-5.057V18.317h-3.665v-2.36h3.665v-4.214l3.417-.894v5.108h5.374v2.36h-5.374v9.728c0 1.157.243 1.984.728 2.478.487.494 1.292.742 2.418.742.86 0 1.602-.19 2.228-.575v2.363z" fill="#1C1E1D"/></svg>