<svg width="234" height="40" fill="none"><path fill-rule="evenodd" clip-rule="evenodd" d="M34.267 23.902c-.697.441-1.519.496-2.143.144-.793-.448-1.23-1.497-1.23-2.955v-4.364c0-2.107-.832-3.607-2.226-4.012-2.36-.688-4.136 2.201-4.804 3.286l-4.163 6.751v-8.251c-.047-1.899-.664-3.035-1.835-3.377-.774-.226-1.933-.136-3.06 1.587l-9.328 14.98A16.457 16.457 0 013.581 20c0-9.023 7.232-16.364 16.12-16.364 8.887 0 16.117 7.34 16.117 16.364 0 .016.004.03.005.044l-.002.045c.084 1.747-.481 3.137-1.554 3.814zm5.133-3.901v-.046l-.001-.045C39.349 8.921 30.533 0 19.699 0 8.838 0 0 8.972 0 20c0 11.027 8.838 20 19.7 20 4.985 0 9.742-1.895 13.394-5.334a1.836 1.836 0 00.095-2.568A1.773 1.773 0 0030.66 32a15.932 15.932 0 01-10.96 4.364c-4.76 0-9.042-2.106-11.995-5.447L16.12 17.41v6.227c0 2.991 1.16 3.958 2.133 4.241.973.283 2.461.09 4.023-2.447l4.627-7.501c.149-.242.285-.451.41-.631v3.793c0 2.796 1.12 5.032 3.072 6.133 1.76.994 3.973.904 5.776-.234 2.185-1.38 3.363-3.924 3.24-6.989zm27.427-6.833c.474.288.883.928.883 1.504 0 .928-.788 1.696-1.671 1.696a2 2 0 01-.63-.128c-1.041-.768-2.365-1.28-3.752-1.28-3.278 0-5.549 2.688-5.549 6.016s2.27 5.984 5.549 5.984c1.639 0 3.09-.672 4.193-1.696.285-.204.626-.316.977-.32.883 0 1.577.704 1.577 1.6 0 .576-.347 1.088-.788 1.376-1.577 1.344-3.72 2.24-5.927 2.24-5.044 0-9.144-4.16-9.144-9.28 0-5.12 4.099-9.28 9.144-9.28 1.892 0 3.688.576 5.138 1.568zm9.224 3.872c3.436 0 6.336 2.912 6.336 6.496 0 3.584-2.9 6.624-6.336 6.624-3.594 0-6.59-3.04-6.59-6.624 0-3.584 2.996-6.496 6.59-6.496zm-.032 9.92c1.514 0 2.805-1.44 2.805-3.392 0-1.951-1.291-3.168-2.805-3.168-1.64 0-2.996 1.184-2.996 3.168 0 1.952 1.356 3.392 2.996 3.392zm8.53 1.216v-9.152c0-.992.788-1.824 1.765-1.824.978 0 1.797.832 1.797 1.824v9.152c0 .992-.82 1.824-1.797 1.824s-1.766-.832-1.766-1.824zm-.284-14.432c0-1.184.913-2.144 2.05-2.144 1.165 0 2.111.96 2.111 2.144 0 1.152-.946 2.08-2.112 2.08-1.135 0-2.049-.928-2.049-2.08zm10.674 9.472v4.96c0 .992-.82 1.824-1.798 1.824-.977 0-1.766-.832-1.766-1.824v-9.568c0-.768.63-1.408 1.388-1.408.756 0 1.356.64 1.356 1.408 1.45-1.344 2.71-1.568 3.908-1.568 3.563 0 5.14 2.688 5.14 5.728v5.408c0 .992-.82 1.824-1.797 1.824-.978 0-1.766-.832-1.766-1.824v-4.96c0-1.568-.19-2.88-2.427-2.88-1.577 0-2.24 1.312-2.24 2.88h.002zm19.815 1.888c-.41 0-.693-.192-.914-.448l-4.162-4.512v8.032c0 .992-.819 1.824-1.797 1.824s-1.766-.832-1.766-1.824V12.273a.695.695 0 01.664-.449c.314 0 .565.257.756.45l6.62 7.455c.189.224.441.352.568.352.126 0 .377-.128.567-.351l6.621-7.457c.189-.192.441-.449.756-.449s.568.193.663.45v15.902c0 .992-.789 1.824-1.766 1.824-.978 0-1.797-.832-1.797-1.824v-8.032l-4.161 4.512c-.222.256-.506.448-.852.448zm17.137 1.856c1.608 0 2.963-1.44 2.963-3.392 0-1.951-1.387-3.232-2.963-3.232-1.577 0-2.838 1.312-2.838 3.232 0 1.888 1.261 3.392 2.838 3.392zm3.783 1.632l-.064-.416c-.693 1.375-2.901 1.984-4.319 1.984-3.343 0-5.801-3.04-5.801-6.624 0-3.584 2.522-6.496 5.99-6.496.599 0 2.585.16 4.13 1.984l.063-.416c0-.768.599-1.408 1.356-1.408.756 0 1.387.64 1.387 1.408v9.984c0 .768-.631 1.408-1.388 1.408-.756 0-1.356-.64-1.356-1.408h.002zm12.627-8.256h-.377c-2.239.128-2.68 1.408-2.68 2.88v4.96c0 .992-.82 1.824-1.797 1.824-.978 0-1.766-.832-1.766-1.824v-9.568c0-.768.63-1.408 1.387-1.408s1.356.64 1.356 1.408c1.324-1.248 2.396-1.504 3.5-1.568h.346c.852 0 1.639.736 1.639 1.664 0 .864-.756 1.632-1.608 1.632zm13.732 7.008c.158.256.253.544.253.864 0 .928-.852 1.792-1.766 1.792-.63 0-1.167-.48-1.577-.992l-4.097-4.768v3.936c0 .992-.821 1.824-1.798 1.824-.978 0-1.766-.832-1.766-1.824V13.649c0-.993.788-1.825 1.766-1.825.977 0 1.797.832 1.797 1.825v9.055l4.098-4.544c.41-.48.915-.96 1.546-.96.883 0 1.702.832 1.702 1.76 0 .288-.063.576-.221.832l-3.247 3.551 3.31 4v.001zm6.986-6.944c-.978 0-2.555.512-2.555 2.016h5.139c0-1.536-1.639-2.016-2.585-2.016h.001zm4.665 4.288h-7.22c0 2.144 2.049 2.464 2.963 2.464.664 0 1.609-.128 2.334-.449a1.73 1.73 0 01.914-.287c.788 0 1.45.673 1.45 1.473 0 .543-.346 1.023-.787 1.279-1.104.8-2.523.992-3.878.992-3.595 0-6.59-1.951-6.59-6.464 0-3.552 1.829-6.656 6.085-6.656 3.436 0 6.053 2.24 6.116 6.24 0 .768-.63 1.408-1.387 1.408zm9.917 5.472h-.978c-2.712 0-4.287-1.184-4.287-5.44v-4.384h-.915c-.851 0-1.607-.768-1.607-1.632 0-.928.756-1.664 1.607-1.664h.915v-3.392c0-.992.788-1.825 1.765-1.825.977 0 1.798.833 1.798 1.825v3.392h1.481c.851 0 1.608.736 1.608 1.664 0 .864-.757 1.632-1.608 1.632h-1.481v3.68c0 2.432.125 2.944 1.198 2.944h.504c.851 0 1.576.704 1.576 1.6 0 .864-.725 1.6-1.576 1.6zm17.262-16.992c.473.288.883.928.883 1.504 0 .928-.788 1.696-1.671 1.696-.22 0-.442-.064-.63-.128-1.041-.768-2.365-1.28-3.752-1.28-3.278 0-5.55 2.688-5.55 6.016s2.271 5.984 5.55 5.984c1.639 0 3.089-.672 4.193-1.696a1.7 1.7 0 01.977-.32c.883 0 1.576.704 1.576 1.6 0 .576-.346 1.088-.787 1.376-1.577 1.344-3.721 2.24-5.928 2.24-5.044 0-9.143-4.16-9.143-9.28 0-5.12 4.098-9.28 9.143-9.28 1.893 0 3.689.576 5.139 1.568zm9.035 13.792c1.607 0 2.962-1.44 2.962-3.392 0-1.951-1.387-3.232-2.963-3.232s-2.838 1.312-2.838 3.232c0 1.888 1.262 3.392 2.838 3.392h.001zm3.782 1.632l-.062-.416c-.694 1.375-2.901 1.984-4.32 1.984-3.342 0-5.801-3.04-5.801-6.624 0-3.584 2.523-6.496 5.99-6.496.599 0 2.585.16 4.131 1.984l.062-.416c0-.768.599-1.408 1.356-1.408.756 0 1.387.64 1.387 1.408v9.984c0 .768-.631 1.408-1.387 1.408-.757 0-1.356-.64-1.356-1.408zm12.534-1.632c1.576 0 2.837-1.504 2.837-3.392 0-1.92-1.261-3.232-2.837-3.232-1.577 0-2.964 1.28-2.964 3.232 0 1.952 1.356 3.392 2.964 3.392zm-2.964 2.144v4.544c0 .992-.82 1.824-1.797 1.824s-1.766-.832-1.766-1.824v-15.04c0-.768.631-1.408 1.388-1.408.756 0 1.356.64 1.356 1.536 1.323-1.376 2.963-1.696 4.192-1.696 3.469 0 5.991 2.912 5.991 6.496 0 3.584-2.459 6.624-5.801 6.624-1.04 0-2.586-.32-3.563-1.056z" fill="#17181B"/></svg>