<svg width="1045" height="277" fill="none" xmlns="http://www.w3.org/2000/svg"><path d="M431.66 109.39c-2.84-11.07-10-19.17-24-19.17-20.66 0-29.3 18.22-29.3 36.71 0 18.49 8.64 36.72 29.3 36.72 15 0 23.22-11.2 24.56-25.24h16.47c-1.35 23.08-17.68 39-41 39-28.89 0-46.17-22.95-46.17-50.49 0-27.54 17.22-50.53 46.11-50.53 21.73.13 38.87 12.15 40.9 32.94l-16.87.06zm27 30.72c0-21.33 12.82-36.71 35.23-36.71 22.41 0 35.23 15.38 35.23 36.71s-12.82 36.86-35.23 36.86c-22.41 0-35.23-15.39-35.23-36.86zm55.07 0c0-12-6.07-24.56-19.84-24.56s-19.84 12.55-19.84 24.56c0 12.01 6.07 24.71 19.84 24.71s19.84-12.56 19.84-24.71zm28.62-61.42h15.39v14.58h-15.39V78.69zm0 26.6h15.39v69.79h-15.39v-69.79zm32.13 0h14.58v10.26l.27.27a24.995 24.995 0 0121.74-12.43c15.12 0 24.7 8.1 24.7 23.75v47.93h-15.39V131.2c-.27-10.93-4.59-15.65-13.63-15.65-10.26 0-16.88 8.09-16.88 18.35v41.18h-15.39v-69.79zm163.75 69.79h-10.8l-2.56-11.34c-9 10.26-17.28 13.63-29 13.63-28.87.02-46.19-22.98-46.19-50.49S667 76.39 695.85 76.39c21 0 38.74 11.2 41.3 32.94h-16.47c-1.62-12.69-12.68-19.17-24.83-19.17-20.66 0-29.3 18.22-29.3 36.71 0 18.49 8.64 36.72 29.3 36.72 17.27.27 26.72-10.12 27-26.46H697.2v-12.81h41l.03 50.76zm28.22-30.92c0 10.94 5.94 20.66 18.76 20.66 8.91 0 14.31-3.92 17-11.61h14.59c-3.37 15.25-16.33 23.76-31.59 23.76-21.86 0-34.15-15.26-34.15-36.72 0-19.85 13-36.85 33.75-36.85 22 0 35.5 19.84 32.94 40.76h-51.3zm35.91-10.12c-.54-9.72-7.16-18.49-17.55-18.49-10.67 0-17.95 8.09-18.36 18.49h35.91zm74.25-5.4c-1.22-8.51-7.43-13.09-15.93-13.09-8 0-19.17 4.18-19.17 25.37 0 11.61 5.13 23.9 18.49 23.9 8.91 0 15.12-5.94 16.61-15.93H892c-2.84 18.09-14 28.08-32 28.08-21.87 0-33.88-15.53-33.88-36.05 0-21.06 11.48-37.52 34.42-37.52 16.2 0 30 8.1 31.46 25.24h-15.39zM905 78.69h15.39v54.81l27.81-28.21h18.9l-26.73 25.64 29.29 44.15h-18.8l-21.33-33.89-9.18 8.91v25H905V78.69zm68.81 61.42c0-21.33 12.82-36.71 35.23-36.71 22.41 0 35.24 15.38 35.24 36.71s-12.83 36.86-35.24 36.86c-22.41 0-35.23-15.39-35.23-36.86zm55.08 0c0-12-6.08-24.56-19.85-24.56-13.77 0-19.84 12.55-19.84 24.56 0 12.01 6.07 24.71 19.84 24.71s19.85-12.56 19.85-24.71z" fill="#fff"/><path d="M276 138.39a138.005 138.005 0 01-84.628 127.871A138 138 0 11276 138.39z" fill="#8DC63F"/><path d="M265.65 138.44a127.634 127.634 0 01-78.254 118.272A127.63 127.63 0 11137.45 11.39a127.641 127.641 0 01128.2 127.05z" fill="#F9E988"/><path d="M140.35 19.66a70.184 70.184 0 0124.53 0 74.66 74.66 0 0123.43 7.85c7.28 4 13.57 9.43 19.83 14.52 6.26 5.09 12.49 10.3 18.42 16a93.395 93.395 0 0115.71 19 108.12 108.12 0 0111 22.17c5.33 15.66 7.18 32.53 4.52 48.62H257c-2.67-15.95-6.29-31.15-12-45.61a178.06 178.06 0 00-9.44-21.25 208.961 208.961 0 00-12.42-19.93 72.3 72.3 0 00-16.64-16.8c-6.48-4.62-13.93-7.61-21.14-10.45-7.21-2.84-14.36-5.78-21.88-7.94s-15.16-3.78-23.14-5.35l.01-.83z" fill="#fff"/><path d="M202.74 93.39c-9.26-2.68-18.86-6.48-28.58-10.32-.56-2.44-2.72-5.48-7.09-9.19-6.35-5.51-18.28-5.37-28.59-2.93-11.38-2.68-22.62-3.63-33.41-1-88.25 24.31-38.21 83.62-70.61 143.24 4.61 9.78 54.3 66.84 126.2 51.53 0 0-24.59-59.09 30.9-87.45 45.01-23.09 77.53-65.81 11.18-83.88z" fill="#8BC53F"/><path d="M213.64 132.2a5.348 5.348 0 01-6.364 5.283 5.349 5.349 0 01-1.983-9.685 5.355 5.355 0 012.967-.918 5.364 5.364 0 015.38 5.32z" fill="#fff"/><path d="M138.48 70.91c6.43.46 29.68 8 35.68 12.12-5-14.5-21.83-16.43-35.68-12.12z" fill="#009345"/><path d="M144.6 107.58a24.683 24.683 0 01-15.228 22.809 24.688 24.688 0 01-26.9-5.344A24.681 24.681 0 11144.6 107.58z" fill="#fff"/><path d="M137.28 107.8a17.357 17.357 0 01-10.717 16.039 17.357 17.357 0 01-18.918-3.764 17.357 17.357 0 012.63-26.71A17.362 17.362 0 01137.28 107.8z" fill="#58595B"/><path d="M233.63 143.08c-20 14.09-42.74 24.78-75 24.78-15.1 0-18.16-16-28.14-8.18-5.15 4.06-23.31 13.14-37.72 12.45-14.41-.69-37.77-9.14-44.28-39.9-2.58 30.76-3.9 53.42-15.45 79.39 23 36.83 77.84 65.24 127.62 53-5.35-37.35 27.29-73.93 45.68-92.65 7-7.09 20.3-18.66 27.29-28.91v.02z" fill="#8BC53F"/><path d="M232.85 144c-6.21 5.66-13.6 9.85-21.12 13.55a134.23 134.23 0 01-23.7 8.63c-8.16 2.11-16.67 3.7-25.29 2.92-8.62-.78-17.43-3.71-23.14-10.17l.27-.31c7 4.54 15.08 6.14 23.12 6.37 8.149.248 16.301-.423 24.3-2a132.418 132.418 0 0023.61-7.3c7.63-3.15 15.18-6.8 21.68-12l.27.31z" fill="#58595B"/></svg>