<svg width="249" height="40" fill="none" xmlns="http://www.w3.org/2000/svg"><g clip-path="url(#clip0)"><path d="M44.396 17.996L35.15 1.963A3.998 3.998 0 0031.708 0H13.214a3.975 3.975 0 00-3.441 1.987L.526 18.013a4.011 4.011 0 000 3.974l9.247 16.026A3.955 3.955 0 0013.213 40h18.493a3.975 3.975 0 003.442-1.987l9.246-16.026a4.043 4.043 0 00.002-3.991zM22.46 33.749v-2.748a11.01 11.01 0 10-11.011-11.01 10.874 10.874 0 002.244 6.642l1.987-1.935a8.166 8.166 0 01-1.473-4.712 8.27 8.27 0 118.27 8.27v-2.748a5.515 5.515 0 10-4.793-2.766l2.055-2.004a2.637 2.637 0 01-.102-.736 2.825 2.825 0 112.825 2.825 2.555 2.555 0 01-.805-.138l-7.106 6.934a1.073 1.073 0 01-.222.17c-.018.018-.051.018-.069.034a.794.794 0 01-.17.087c-.034.017-.07.017-.103.033l-.155.051a.219.219 0 00-.096.02c-.051 0-.102.017-.137.017-.051 0-.103-.017-.155-.017a.336.336 0 01-.12-.018l-.155-.051c-.034-.018-.069-.018-.102-.033a.697.697 0 01-.155-.087.375.375 0 01-.087-.05.98.98 0 01-.137-.12c-.018-.018-.051-.034-.069-.07a13.756 13.756 0 119.845 4.163l-.004-.003zM55.526 7.106h8.46c8.184-.086 14.212 5.207 14.092 12.843.12 7.483-5.907 13.117-14.093 12.996h-8.459V7.106zm8.408 21.08c5.206 0 8.699-3.253 8.699-8.22 0-5.017-3.408-8.064-8.699-8.064h-3.14v16.294h3.14v-.01zm33.528 4.776h-4.863V31.08a8.028 8.028 0 01-5.907 2.346c-4.108 0-6.696-2.397-6.696-5.788 0-3.492 2.825-5.634 7.329-5.634h4.862v-.856a3.166 3.166 0 00-3.592-3.407 6.62 6.62 0 00-5.138 2.671L80.71 17.16a10.531 10.531 0 018.475-3.99 7.618 7.618 0 018.303 8.303v11.49h-.025zm-5.3-7.483h-4.135c-1.73 0-2.705.667-2.705 1.951s1.096 2.107 2.774 2.107a3.857 3.857 0 004.075-3.836l-.01-.222zm20.486 7.947a7.745 7.745 0 01-5.804-2.346V40h-5.301V13.583h4.863v2.428a7.345 7.345 0 016.242-2.86 9.505 9.505 0 018.865 6.306 9.517 9.517 0 01.537 3.796 9.578 9.578 0 01-2.522 7.1 9.565 9.565 0 01-6.88 3.073zm-.981-15.497a4.828 4.828 0 00-3.648 1.56 4.838 4.838 0 00-1.25 3.766 4.865 4.865 0 004.898 5.36 5.012 5.012 0 004.731-3.31c.233-.646.33-1.332.287-2.017a4.983 4.983 0 00-5.012-5.36h-.006zm24.629 15.497a7.75 7.75 0 01-5.805-2.346V40h-5.3V13.583h4.878v2.428a7.34 7.34 0 016.227-2.86 9.513 9.513 0 018.864 6.306 9.5 9.5 0 01.537 3.796 9.56 9.56 0 01-2.522 7.1 9.572 9.572 0 01-6.879 3.073zm-.982-15.497a4.835 4.835 0 00-4.898 5.326 4.865 4.865 0 004.898 5.36 5.008 5.008 0 005.018-5.327 4.973 4.973 0 00-5.012-5.36h-.006zm29.614 15.033l-6.696-9.126h-3.87v9.126h-5.3V7.106h9.709c5.411 0 9.315 3.373 9.315 8.34a8.01 8.01 0 01-4.536 7.363l7.328 10.138h-5.95v.015zM154.347 19.18h4.422a3.558 3.558 0 003.927-3.716 3.587 3.587 0 00-2.426-3.506 3.585 3.585 0 00-1.501-.175h-4.417l-.005 7.397zm34.295 13.783h-4.863V31.08a8.023 8.023 0 01-5.907 2.346c-4.108 0-6.696-2.397-6.696-5.788 0-3.492 2.825-5.634 7.328-5.634h4.863v-.856a3.168 3.168 0 00-3.596-3.407 6.622 6.622 0 00-5.138 2.671l-2.748-3.253a10.528 10.528 0 018.459-3.989 7.616 7.616 0 018.304 8.304v11.49l-.006-.002zm-5.301-7.483h-4.144c-1.729 0-2.705.667-2.705 1.951s1.096 2.107 2.774 2.107a3.856 3.856 0 004.075-3.836v-.222zm28.795-21.9v29.366h-4.862v-2.397a7.342 7.342 0 01-6.233 2.86 9.517 9.517 0 01-9.402-10.138 9.524 9.524 0 012.52-7.091 9.522 9.522 0 016.882-3.046 7.543 7.543 0 015.805 2.313V3.579h5.29zm-10.102 14.35a5.012 5.012 0 00-4.731 3.31 5.013 5.013 0 00-.287 2.016 4.963 4.963 0 001.327 3.786 4.966 4.966 0 003.691 1.573 4.828 4.828 0 003.648-1.56 4.838 4.838 0 001.25-3.766 4.885 4.885 0 00-2.907-4.953 4.88 4.88 0 00-1.991-.406zm30.614 15.033h-4.862V31.08a8.027 8.027 0 01-5.907 2.346c-4.109 0-6.696-2.397-6.696-5.788 0-3.492 2.825-5.634 7.328-5.634h4.863v-.856a3.168 3.168 0 00-3.597-3.407 6.617 6.617 0 00-5.137 2.671l-2.749-3.253a10.54 10.54 0 018.459-3.989 7.62 7.62 0 017.889 5.005 7.602 7.602 0 01.415 3.3v11.49l-.006-.003zm-5.274-7.483h-4.142c-1.73 0-2.706.667-2.706 1.951s1.096 2.107 2.774 2.107a3.856 3.856 0 004.076-3.836l-.002-.222zm21.285-7.242h-1.403a4.682 4.682 0 00-5.206 5.051v9.674h-5.301V13.58h4.863v2.312a6.702 6.702 0 015.326-2.552 5.339 5.339 0 011.729.24v4.658h-.008z" fill="#09162E"/></g><defs><clipPath id="clip0"><path fill="#fff" d="M0 0h248.677v40H0z"/></clipPath></defs></svg>