<svg width="48" height="48" fill="none" xmlns="http://www.w3.org/2000/svg"><g clip-path="url(#clip0)" fill="#fff"><path d="M38.4 4.8a1.61 1.61 0 011.406.794c.288.5.288 1.112 0 1.612-.294.5-.831.8-1.406.794H9.6a1.61 1.61 0 01-1.406-.794 1.615 1.615 0 010-1.612c.293-.5.83-.8 1.406-.794h28.8zm3.2 6.4a1.61 1.61 0 011.406.794c.288.5.288 1.112 0 1.612-.294.5-.831.8-1.406.794H6.4a1.61 1.61 0 01-1.406-.794 1.615 1.615 0 010-1.612c.293-.5.831-.8 1.406-.794h35.2zm0 6.4c.206 0 .412.019.619.063.018.006.03.006.05.012a3.197 3.197 0 012.53 3.125v4.969a11.198 11.198 0 00-5.837-3.163A3.158 3.158 0 0138.4 20.8H9.6c0 1.769-1.431 3.2-3.2 3.2v12.8c1.769 0 3.2 1.431 3.2 3.2h12.8v3.2h-16c-.206 0-.413-.019-.619-.062-.019-.007-.031-.007-.05-.013A3.197 3.197 0 013.2 40V20.8c0-.206.019-.412.062-.619.007-.018.007-.03.013-.05a3.197 3.197 0 013.125-2.53h35.2zM20.025 36.8c-1.469-1.319-2.425-3.325-2.425-5.6 0-3.975 2.862-7.2 6.4-7.2 1.756 0 3.344.794 4.5 2.081a11.2 11.2 0 00-2.619 5.025A6.407 6.407 0 0022.4 36.8h-2.375zM12.8 30.4c0 .881-.719 1.6-1.6 1.6-.881 0-1.6-.719-1.6-1.6 0-.881.719-1.6 1.6-1.6.881 0 1.6.719 1.6 1.6z"/><path d="M44.8 33.6c0-4.412-3.588-8-8-8-4.413 0-8 3.588-8 8a3.198 3.198 0 00-3.2 3.2v8c0 1.769 1.431 3.2 3.2 3.2h16c1.769 0 3.2-1.431 3.2-3.2v-8c0-1.769-1.431-3.2-3.2-3.2zm-8-4.8a4.81 4.81 0 014.8 4.8H32a4.81 4.81 0 014.8-4.8z"/></g><defs><clipPath id="clip0"><path fill="#fff" d="M0 0h48v48H0z"/></clipPath></defs></svg>