<svg width="48" height="48" fill="none" xmlns="http://www.w3.org/2000/svg"><path d="M20.8 3.2a1.6 1.6 0 00-1.6 1.6c0 6.066-8 9.586-8 17.6 0 6.585 6.337 10.958 9.36 11.178.079.013.16.02.24.022a1.6 1.6 0 001.01-2.844c-1.457-1.18-2.61-2.766-2.61-5.225 0-4.25 4.8-7.931 4.8-7.931-1.335 5.9 3.036 4.832 3.219 14.166A1.599 1.599 0 0027.2 32c0 .112.013.224.038.334v.013h.003A1.6 1.6 0 0028.8 33.6a1.6 1.6 0 00.938-.306l.003-.003c.011-.006 7.059-3.453 7.059-9.291 0-3.846-1.926-8.862-3.31-11.781a1.6 1.6 0 00-3.09.581s-.05 3.48-1.6 4.8c0-7.653-4.021-10.785-6.853-13.913v-.003A1.6 1.6 0 0020.8 3.2zm17.64 30.394a1.601 1.601 0 00-.427.053l-25.6 6.4a1.6 1.6 0 10.774 3.106l25.6-6.4a1.6 1.6 0 00-.346-3.16zm-29.109.028a1.602 1.602 0 00-.097 3.138l3.32.78 6.774-1.696-9.362-2.203a1.6 1.6 0 00-.635-.02zm26.988 6.222l-6.775 1.694 6.89 1.621a1.604 1.604 0 001.925-1.194 1.603 1.603 0 00-1.193-1.924l-.847-.197z" fill="#fff"/></svg>