<svg width="48" height="48" fill="none" xmlns="http://www.w3.org/2000/svg"><path d="M34.809 1.004a1.001 1.001 0 00-.887.67l-5.867 17a1 1 0 001.271 1.271l17-5.869a.998.998 0 00.62-1.27c-1.888-5.47-6.282-9.862-11.753-11.751a1 1 0 00-.384-.051zM24 6.074V24.88l13.293 13.293a19.384 19.384 0 003.27-19.99l-10.579 3.65A2.964 2.964 0 0129 22c-.79 0-1.563-.32-2.121-.879a3.016 3.016 0 01-.715-3.1l3.654-10.584A19.428 19.428 0 0024 6.074zm-3 .002C11.445 6.81 3.81 14.445 3.076 24H21V6.076zM3.076 27c.771 10.052 9.178 18 19.424 18 4.837 0 9.26-1.78 12.672-4.707L21.879 27H3.076z" fill="#fff"/></svg>