<svg width="48" height="48" fill="none" xmlns="http://www.w3.org/2000/svg"><path d="M11.169 4.784a1.6 1.6 0 00-1.1.485l-6.26 6.26a1.601 1.601 0 00.003 2.546l6.257 6.256a1.601 1.601 0 102.262-2.262L8.662 14.4H30.4c6.204 0 11.2 4.996 11.2 11.2 0 6.204-4.996 11.2-11.2 11.2H24a1.601 1.601 0 100 3.2h6.4c7.367 0 13.24-5.652 14.075-12.8h.325v-1.6c0-7.934-6.466-14.4-14.4-14.4H8.662l3.67-3.669a1.6 1.6 0 00-1.163-2.747zM4.8 36.8a1.6 1.6 0 100 3.2 1.6 1.6 0 000-3.2zm6.4 0a1.6 1.6 0 100 3.2 1.6 1.6 0 000-3.2zm6.4 0a1.6 1.6 0 100 3.2 1.6 1.6 0 000-3.2z" fill="#fff"/></svg>