<svg width="48" height="48" fill="none" xmlns="http://www.w3.org/2000/svg"><path d="M9.6 6.4a3.2 3.2 0 00-3.2 3.2v4.8A1.6 1.6 0 008 16h32a1.6 1.6 0 001.6-1.6V9.6a3.2 3.2 0 00-3.2-3.2H9.6zM8 19.2a1.6 1.6 0 00-1.6 1.6v6.4A1.6 1.6 0 008 28.8h21.897c1.801-3.778 5.647-6.4 10.103-6.4.544 0 1.075.053 1.6.128V20.8a1.6 1.6 0 00-1.6-1.6H8zm32 6.4a8 8 0 00-8 8c0 .952.194 1.853.5 2.7l-6.9 6.9v4.787l4.8.013v-3.2h3.2l3.7-3.7c.846.306 1.748.5 2.7.5a8 8 0 000-16zm.8 4.8a2.4 2.4 0 11-.002 4.802A2.4 2.4 0 0140.8 30.4zM8 32a1.6 1.6 0 00-1.6 1.6v4.8a3.2 3.2 0 003.2 3.2h13.075l.662-.663 5.61-5.609A10.414 10.414 0 0128.8 33.6c0-.544.053-1.075.128-1.6H8z" fill="#fff"/></svg>