<svg width="48" height="48" fill="none" xmlns="http://www.w3.org/2000/svg"><path d="M24 4.8c-7.363 0-15.022 1.66-15.022 1.66l-.006.006A3.2 3.2 0 006.4 9.6v9.6c0 16.637 16.034 23.59 16.034 23.59A3.2 3.2 0 0024 43.2a3.2 3.2 0 001.56-.41h.006c.001 0 16.034-6.953 16.034-23.59V9.6a3.2 3.2 0 00-2.578-3.14S31.363 4.8 24 4.8zm0 6.4c2.648 0 4.8 2.152 4.8 4.8v3.2h1.6a1.6 1.6 0 011.6 1.6v8a1.6 1.6 0 01-1.6 1.6H17.6a1.6 1.6 0 01-1.6-1.6v-8a1.6 1.6 0 011.6-1.6h1.6V16c0-2.648 2.152-4.8 4.8-4.8zm0 3.2c-.882 0-1.6.718-1.6 1.6v3.2h3.2V16c0-.882-.719-1.6-1.6-1.6z" fill="#fff"/></svg>