<svg width="48" height="48" fill="none" xmlns="http://www.w3.org/2000/svg"><path d="M24 4.8C13.415 4.8 4.8 13.415 4.8 24c0 10.585 8.615 19.2 19.2 19.2 10.585 0 19.2-8.615 19.2-19.2 0-10.585-8.615-19.2-19.2-19.2zM24 8c8.856 0 16 7.145 16 16 0 2.927-.794 5.659-2.16 8.016l-6.506-4.697c-.13-2.61-1.715-4.103-5.228-4.84l-2.103-.448-3.11-2.243v-.007c0-1.392 1.267-2.278 3.179-2.278 1.848 0 3.188.96 3.366 2.403h3.593c-.099-2.816-2.249-4.874-5.431-5.381V11.2h-3.2v3.334c-2.193.348-3.826 1.413-4.678 2.963l-5.69-4.106C14.96 10.088 19.224 8 24 8zm-13.84 7.984L35.968 34.61C33.04 37.912 28.775 40 24 40c-8.855 0-16-7.144-16-16 0-2.927.794-5.658 2.16-8.016zm6.48 12.072c.122 2.98 2.3 4.99 5.76 5.444v3.3h3.2v-3.306a8.65 8.65 0 002.503-.71l-3.244-2.34a5.788 5.788 0 01-.7.044c-2.152 0-3.644-.95-3.822-2.432h-3.696z" fill="#fff"/></svg>