<svg width="48" height="48" fill="none" xmlns="http://www.w3.org/2000/svg"><path d="M10.451 31.17c-.432 0-.848.16-1.168.48a1.593 1.593 0 000 2.256 1.613 1.613 0 002.272 0c.304-.32.464-.72.464-1.12 0-.416-.16-.832-.464-1.136a1.592 1.592 0 00-1.104-.48zM4.803 17.602a1.6 1.6 0 100 3.2 1.6 1.6 0 000-3.2zm14.4 24a3.2 3.2 0 003.2 3.2c0 .88.72 1.6 1.6 1.6.88 0 1.6-.72 1.6-1.6 1.76 0 3.2-1.44 3.2-3.2v-1.6h-9.6v1.6zM9.3 4.498a1.593 1.593 0 000 2.256 1.593 1.593 0 002.256 0 1.593 1.593 0 000-2.256 1.592 1.592 0 00-1.104-.48c-.432 0-.848.176-1.152.48zm28.304-.48c-.432 0-.848.176-1.152.48a1.593 1.593 0 000 2.256 1.593 1.593 0 002.256 0 1.593 1.593 0 000-2.256 1.592 1.592 0 00-1.104-.48zm5.6 13.584a1.6 1.6 0 100 3.2 1.6 1.6 0 000-3.2zm-5.6 13.584a1.556 1.556 0 00-1.152.464 1.58 1.58 0 00-.016 2.256h.016a1.593 1.593 0 002.256 0 1.593 1.593 0 000-2.256 1.511 1.511 0 00-1.104-.464zm-13.6-26.384c-7.952 0-14.4 6.448-14.4 14.4 0 8 6.4 11.2 9.6 17.6h9.6c3.2-6.4 9.6-9.6 9.6-17.6 0-7.952-6.448-14.4-14.4-14.4zm1.6 21.76v2.24h-3.2v-2.224a4.967 4.967 0 01-.576-.16c-1.312-.432-2.176-1.264-2.448-2.432a2.936 2.936 0 01-.096-.752h2.736c.048.672.608 1.152 1.488 1.28.176.048.384.064.592.064.528 0 .976-.144 1.296-.368a1.094 1.094 0 00.496-.896.842.842 0 00-.096-.416.86.86 0 00-.304-.336 2.308 2.308 0 00-.56-.256 5.997 5.997 0 00-.816-.208l-.112-.016-1.376-.288c-.736-.144-1.344-.368-1.824-.704-.864-.56-1.296-1.44-1.296-2.576 0-1.04.4-1.904 1.088-2.512a.718.718 0 01.208-.176c.432-.352.976-.608 1.6-.768v-2.256h3.2v2.272c.352.096.688.224.992.384.288.144.56.336.8.544a3.128 3.128 0 011.024 1.664c.048.224.08.464.08.704h-2.64c-.064-.784-.816-1.344-1.824-1.344h-.032c-.992.016-1.648.496-1.648 1.232 0 .592.48.96 1.648 1.184.016.016.032.016.048.016l1.456.288c2.224.432 3.216 1.44 3.216 3.232 0 1.872-1.152 3.136-3.12 3.584z" fill="#fff"/></svg>