<svg width="48" height="48" fill="none" xmlns="http://www.w3.org/2000/svg"><path d="M4.016 25.6H17.6c2.656 0 4.8-2.144 4.8-4.8V6.816c0-1.12-.896-2.016-2.016-2.016H2.016C.896 4.8 0 5.696 0 6.816v14.768A4.008 4.008 0 004.016 25.6zM7.12 8.432h8.16c.56 0 1.008.464 1.008 1.024s-.448 1.024-1.008 1.024H7.12c-.56 0-1.008-.464-1.008-1.024S6.56 8.432 7.12 8.432zM8 29.63c-.885 0-1.6.715-1.6 1.6v7.115a6.465 6.465 0 006.456 6.456H40v-8.032h3.52c.512-.112.96-.448 1.152-.96a1.604 1.604 0 00-.336-1.744l-4.672-4.656a1.57 1.57 0 00-1.296-.624c-.48 0-.944.224-1.232.624h-.016l-4.656 4.656a1.604 1.604 0 00-.336 1.744c.192.512.64.848 1.152.96h3.52V41.6H12.856A3.26 3.26 0 019.6 38.344V31.23c0-.885-.715-1.6-1.6-1.6zM42.88 9.92a5.12 5.12 0 10-10.241.001 5.12 5.12 0 0010.241 0zm-5.12 7.68c-4.944 0-9.088 3.44-10.032 8h20.064c-.944-4.56-5.088-8-10.032-8z" fill="#fff"/></svg>