<svg width="16" height="16" fill="none" xmlns="http://www.w3.org/2000/svg"><path fill-rule="evenodd" clip-rule="evenodd" d="M15.696.445a1.36 1.36 0 01-.116 1.841L9.418 8l6.162 5.714a1.36 1.36 0 01.116 1.84 1.183 1.183 0 01-1.737.123L6.74 8.982A1.34 1.34 0 016.319 8c0-.376.153-.734.42-.982l7.22-6.695a1.183 1.183 0 011.737.122z" fill="#fff"/><path fill-rule="evenodd" clip-rule="evenodd" d="M.305.445A1.36 1.36 0 00.42 2.286L6.582 8 .42 13.714a1.36 1.36 0 00-.115 1.84 1.183 1.183 0 001.736.123l7.22-6.695A1.34 1.34 0 009.683 8a1.34 1.34 0 00-.42-.982L2.042.323A1.183 1.183 0 00.304.445z" fill="#fff"/></svg>