<svg width="16" height="16" fill="none" xmlns="http://www.w3.org/2000/svg"><path d="M6.401 1.06a.533.533 0 00-.522.426l-.256 1.18H3.2c-.59 0-1.067.478-1.067 1.067v6.4H1.6a.534.534 0 100 1.067h2.167l-.554 2.553a.533.533 0 101.041.227l.604-2.78h2.609v1.6a.533.533 0 101.066 0v-1.6h2.609l.604 2.78a.533.533 0 101.041-.227l-.554-2.553H14.4a.534.534 0 100-1.067h-.533v-6.4c0-.589-.478-1.066-1.067-1.066h-2.423l-.256-1.18a.534.534 0 10-1.042.227l.206.953h-2.57l.206-.953a.533.533 0 00-.52-.655zm5.066 2.673a.8.8 0 110 1.6.8.8 0 010-1.6zm-5.6 2.147c.337 0 .675.129.933.387l.652.652 1.165 1.164a.577.577 0 00.814-.819l-.054-.053a1.68 1.68 0 011.923.063l.967.726v1.067H3.733v-1.6l1.2-1.2c.258-.258.596-.387.934-.387z" fill="#B2B6BD"/></svg>