<svg width="13" height="16" fill="none" xmlns="http://www.w3.org/2000/svg"><mask id="a" maskUnits="userSpaceOnUse" x="0" y="0" width="13" height="9"><path d="M0 6.71l8.478.068s1.871.238 3.47 1.642c.09.079.446 0 .446 0L12.351 0 0 .014V6.71z" fill="#fff"/></mask><g mask="url(#a)" fill-rule="evenodd" clip-rule="evenodd" fill="#1C1E1D"><path d="M10.593 1.896C9.585 1.066 8.197.65 6.43.65h-4.4v.615h4.32c1.502 0 2.862.31 3.692 1.027.83.717 1.46 1.785 1.46 3.104 0 1.272-.545 2.215-1.408 2.928-.864.713-2.404 1.028-3.945 1.028H1.184v.615l4.998-.001c1.86 0 3.312-.405 4.357-1.211 1.046-.808 1.568-1.944 1.568-3.409 0-1.468-.504-2.618-1.514-3.45z"/><path d="M10.22 2.788c-.627-.476-1.348-.86-3.389-.86H3.436v.6s1.52-.02 3.32 0c1.74.018 2.378.214 2.963.647.75.554 1.214 1.237 1.214 2.194 0 .922-.472 1.575-1.225 2.129-.77.567-1.947.573-2.426.584-.18.004-2.52 0-2.52 0v.6s1.164.016 1.884-.001c1.651-.037 2.63-.135 3.543-.813.857-.635 1.31-1.474 1.31-2.535 0-1.4-.701-2.107-1.278-2.545z"/><path d="M9.917 3.58c-.47-.296-.884-.495-2.834-.495h-2.44v.394h2.373c1.727 0 2.381.308 2.58.43.388.237.9.624.9 1.413 0 .504-.299 1.137-.74 1.386-.4.226-1.135.428-2.428.428H-.643v.395h8c1.56 0 2.094-.173 2.644-.477.55-.303.918-.927.918-1.728 0-.896-.5-1.432-1.002-1.747z"/></g><path fill-rule="evenodd" clip-rule="evenodd" d="M11.469 7.93C10.46 7.1 9.072 6.685 7.306 6.685H4.36V7.3h2.863c1.502 0 2.863.31 3.693 1.026.83.718 1.459 1.786 1.459 3.105 0 1.271-.544 2.214-1.408 2.928-.863.713-2.404 1.027-3.946 1.027H2.06V16h4.997c1.86 0 3.311-.404 4.357-1.212 1.045-.807 1.569-1.943 1.569-3.408 0-1.47-.505-2.62-1.514-3.45z" fill="#1C1E1D"/><path fill-rule="evenodd" clip-rule="evenodd" d="M11.096 8.821c-.628-.475-1.35-.86-3.39-.86H3.091v.6s2.739-.02 4.54 0c1.74.018 2.377.214 2.962.647.75.555 1.215 1.238 1.215 2.194 0 .922-.472 1.575-1.225 2.13-.77.566-1.946.573-2.426.584-.181.004-2.52 0-2.52 0v.599s1.163.016 1.884 0c1.65-.038 2.631-.136 3.543-.813.856-.636 1.309-1.474 1.309-2.536 0-1.4-.7-2.106-1.277-2.545z" fill="#1C1E1D"/><path fill-rule="evenodd" clip-rule="evenodd" d="M4.08 10.856h4.324v-.335H4.08v.335zm1.783 1.172h2.516v-.288H5.863v.288zM2.06 10.856h1.28v-.335H2.06v.335zm-.8 1.195h3.893v-.335H1.26v.335zm.96-8.598h1.516v-.276H2.22v.276zM1.164 5.696h3.473v-.322H1.164v.322zm.096 8.978h3.663v-.402H1.261v.402zm-.912 1.302h.915v-.582H.348v.582zM2.637 4.714h5.75v-.321h-5.75v.321zm2.875.982h2.766v-.322H5.512v.322z" fill="#1C1E1D"/><path fill-rule="evenodd" clip-rule="evenodd" d="M10.793 9.673c-.472-.285-.886-.477-2.834-.477h-3.11v.38H7.89c1.727 0 2.383.297 2.581.415.387.23.9.602.9 1.364 0 .487-.298 1.098-.74 1.337-.401.22-1.135.415-2.428.415H.233v.38h8c1.56 0 2.094-.167 2.643-.46.55-.293.918-.896.918-1.67 0-.863-.499-1.38-1.002-1.684z" fill="#1C1E1D"/></svg>