<svg width="16" height="16" fill="none" xmlns="http://www.w3.org/2000/svg"><path d="M5.867 1.067c-.59 0-1.067.477-1.067 1.066v8.534c0 .589.477 1.066 1.067 1.066H12.8c.59 0 1.067-.477 1.067-1.066V4.533a.533.533 0 00-.157-.377l-2.933-2.933a.533.533 0 00-.377-.156H5.867zm4.266 1.015L12.851 4.8h-2.184a.533.533 0 01-.534-.533V2.082zM3.2 3.733c-.59 0-1.067.478-1.067 1.067v8.533c0 .59.478 1.067 1.067 1.067h6.933c.59 0 1.067-.477 1.067-1.067V12.8H5.867a2.135 2.135 0 01-2.134-2.133V3.733H3.2z" fill="#09162E"/></svg>