<svg width="64" height="64" fill="none" xmlns="http://www.w3.org/2000/svg"><path d="M14.933 6.4a4.266 4.266 0 00-4.266 4.267v44.8a4.266 4.266 0 004.266 4.266h34.134a4.265 4.265 0 004.266-4.266V22.4c0-.565-.224-1.107-.625-1.508L38.842 7.025a2.131 2.131 0 00-1.509-.625h-22.4zm21.334 4.062L49.27 23.467H38.4a2.134 2.134 0 01-2.134-2.134v-10.87zm-6.234 15.78c1.159 0 2.13.49 2.734 1.379.486.712.72 1.628.72 2.804 0 2.016-.902 5.18-2.308 8.57a38.694 38.694 0 002.313 4.447c1.958.012 4.65.19 6.846.929 3.159 1.058 3.825 2.799 3.825 4.075-.003 1.837-1.492 3.82-4.767 3.82-2.421 0-5.12-2.456-7.45-5.82a36.041 36.041 0 00-4.792.47c-2.713 4.44-5.789 7.913-8.133 7.913-2.577 0-3.446-2.546-3.446-3.708 0-3.655 4.622-5.815 9.73-6.871a58.46 58.46 0 002.703-5.188c-1.188-2.946-1.92-5.826-1.92-7.966 0-1.357.278-2.456.829-3.275.687-1.02 1.796-1.58 3.116-1.58zm-.004 2.983c-.463 0-.567.158-.637.262-.12.178-.321.623-.321 1.609 0 1.092.218 2.37.596 3.737.559-1.745.878-3.333.833-4.591-.034-1.016-.279-1.017-.47-1.017zm5.609 17.292c1.371 1.68 2.713 2.762 3.754 2.762 1.228 0 1.779-.42 1.779-.837.002-.393-.698-.882-1.783-1.246-.986-.33-2.274-.56-3.75-.68zm-12.709 1.429c-2.698.91-4.37 2.095-4.37 3.17.002 0 .12.726.458.726.81-.058 2.287-1.605 3.912-3.896z" fill="url(#paint0_linear)"/><defs><linearGradient id="paint0_linear" x1="10.667" y1="6.4" x2="58.852" y2="11.966" gradientUnits="userSpaceOnUse"><stop stop-color="#F2BF10"/><stop offset="1" stop-color="#F57777"/></linearGradient></defs></svg>