<svg width="16" height="16" fill="none" xmlns="http://www.w3.org/2000/svg"><path d="M8 3.2c-2.169 0-5.119.565-5.122.566a1.6 1.6 0 00-1.249 1.271l-.002.003-1.049 5.722.001.002a2.133 2.133 0 002.088 2.57 2.12 2.12 0 001.585-.72l.007.005.808-.886h5.866l.808.886.007-.004c.39.437.953.718 1.585.718a2.133 2.133 0 002.088-2.57L14.374 5.04l-.002-.003a1.6 1.6 0 00-1.25-1.271C13.118 3.765 10.169 3.2 8 3.2zM4.267 6.4c.294 0 .533.239.533.533v.534h.533a.534.534 0 010 1.066H4.8v.534a.534.534 0 01-1.067 0v-.534H3.2a.534.534 0 010-1.066h.533v-.534c0-.294.24-.533.534-.533zm7.466 0a.534.534 0 110 1.067.534.534 0 010-1.067zm-1.066 1.067a.534.534 0 110 1.067.534.534 0 010-1.067zm2.133 0a.534.534 0 110 1.067.534.534 0 010-1.067zm-1.067 1.066a.534.534 0 110 1.067.534.534 0 010-1.067z" fill="#B2B6BD"/></svg>