<svg width="106" height="33" fill="none" xmlns="http://www.w3.org/2000/svg"><path d="M39.883 21.815l-4.085-10.91h-2.112l5.254 13.473h1.885l5.303-13.472h-2.136l-4.11 10.909zm7.654-9.025h7.916v3.03l-4.875.813c-.991.168-1.805.451-2.443.85a3.848 3.848 0 00-1.407 1.47 4.091 4.091 0 00-.453 1.922 3.41 3.41 0 00.579 1.961 3.953 3.953 0 001.583 1.345 5.15 5.15 0 002.287.49 6.28 6.28 0 002.178-.355 5.833 5.833 0 001.735-.982 4.26 4.26 0 00.816-.894v1.938h1.885V10.906H48.28l-.743 1.884zm7.916 5.757a4.404 4.404 0 01-.577 2.237 4.273 4.273 0 01-1.609 1.593c-.688.393-1.492.59-2.413.59-.754 0-1.37-.21-1.848-.629a1.964 1.964 0 01-.715-1.527 2.26 2.26 0 01.637-1.608c.424-.453 1.124-.763 2.099-.93l4.423-.737.003 1.01zm12.548-7.292a5.102 5.102 0 00-2.576-.653 4.707 4.707 0 00-2.654.754 4.166 4.166 0 00-1.22 1.222v-1.672h-1.877v13.472h1.886V16.36c0-.804.15-1.496.452-2.073a3.216 3.216 0 011.25-1.333 3.6 3.6 0 011.836-.465 3.529 3.529 0 011.822.465c.529.312.957.77 1.232 1.32.293.566.44 1.262.44 2.086v8.018h1.885v-8.747a5.027 5.027 0 00-.666-2.57 4.849 4.849 0 00-1.81-1.806zm8.609 1.381a5.33 5.33 0 012.76-.729c.9-.014 1.786.216 2.564.666a5.014 5.014 0 011.844 1.927l.955-.53a5.347 5.347 0 00-1.245-1.61 5.976 5.976 0 00-1.834-1.105 6.61 6.61 0 00-5.605.504 6.639 6.639 0 00-2.38 2.47c-.586 1.04-.88 2.22-.88 3.544a7.103 7.103 0 00.88 3.531 6.62 6.62 0 002.375 2.477 6.309 6.309 0 003.33.904 6.113 6.113 0 002.28-.42 6.02 6.02 0 001.835-1.131 5.635 5.635 0 001.244-1.593l-.955-.503a5.154 5.154 0 01-1.836 1.911 4.874 4.874 0 01-2.563.679 5.25 5.25 0 01-4.733-2.781c-.487-.88-.73-1.907-.729-3.08 0-1.172.244-2.198.729-3.079a5.309 5.309 0 011.964-2.052zm10.801-.474h8.27v3.839l-5.128.862c-1.055.168-1.897.46-2.526.88-.629.418-1.08.908-1.357 1.47a3.896 3.896 0 00-.415 1.746 3.344 3.344 0 00.579 1.949c.39.565.922 1.016 1.544 1.307a4.96 4.96 0 002.175.465 5.87 5.87 0 004.141-1.634c.391-.37.715-.806.956-1.288v2.62h1.156V11.157h-8.994l-.4 1.005zm8.27 6.234a5.458 5.458 0 01-.63 2.576 5.075 5.075 0 01-1.746 1.923c-.745.486-1.63.73-2.654.729-.92 0-1.691-.243-2.313-.729-.622-.485-.931-1.147-.93-1.985a2.679 2.679 0 01.78-1.885c.519-.553 1.432-.938 2.739-1.156l4.75-.788.004 1.315zm8.94 5.026a6.118 6.118 0 01-.503.026c-.636 0-1.11-.121-1.42-.364a1.648 1.648 0 01-.603-.893 3.867 3.867 0 01-.138-.98v-9.049h2.866v-1.006h-2.866V8.04h-1.131v3.117h-2.114l-.4 1.005h2.514v9.049c0 1.106.276 1.936.829 2.488.553.552 1.341.828 2.363.829.101 0 .265-.008.49-.026.2-.013.398-.049.591-.106v-1.03c-.117.024-.277.04-.478.056zM29.452 10.88L29.069 0l-8.771 7.942-5.05.531-5.055-.53L1.426 0l-.381 10.869L0 18.239v.024l2.636 6.053.012.025 6.915 4.935 2.198 2.73h6.974l2.198-2.73 6.914-4.935 2.638-6.044.01-.025-1.043-7.393zm-.199.011l-6.088-.117L28.89.581l.362 10.31zm-3.557 12.014l-.008-.005-.01.014-3.802-1.294 2.935-3.317.885 4.602zm-.65-4.444l4.876-.005-4.077 4.166-.8-4.161zm-.239-.198v.021l-4.259 1.11 2.466-8.512.068.036 1.743 7.345h-.018zm-1.501-7.284l5.675.106-4.067 6.69-1.608-6.796zM28.592.703l-5.562 9.906-2.549-2.567 8.11-7.34zm-8.283 7.439l2.541 2.563-7.326-2.057 4.785-.506zm2.501 2.76l-2.317 7.985-4.98-10.032 7.297 2.048zm-2.279 8.506l-2.038 2.402-3.08-12.707 5.118 10.305zm-2.149 2.654l2.488 5.287-3.292-.521.804-4.765zm-.978 4.59l-1.8-.032 2.447-3.79-.647 3.822zm.927-4.709l.015.05-2.973 4.616-.106.01-.113-.01-3.009-4.618L15.248 9.27l3.083 12.675zm-3.398 4.672l-1.835.032-.645-3.836 2.48 3.805zM12 21.81l-2.03-2.404-4.285-1.124v-.02H5.67l1.74-7.347.067-.036 2.492 8.527 5.113-10.3L12 21.81zm-.036.1l-2.436 5.023-.698-5.222 3.134.2zM5.675 18.3l2.936 3.317-3.798 1.297-.01-.014-.008.006.88-4.606zm-1.033 4.32L.57 18.455l4.877.006-.804 4.159zm.935-4.85L1.51 11.082l5.675-.106-1.61 6.796zM10 18.885l-2.308-7.983 7.291-2.046L10 18.885zm4.972-10.236l-7.327 2.057 2.548-2.563 4.779.506zm-4.961-.606L7.462 10.61 1.904.703l8.107 7.34zm-8.768 2.844L1.605.578 7.331 10.77l-6.089.117.001-.002zM.205 18.239l1.022-7.242 4.419 7.266-5.434-.008-.007-.016zm.106.235l4.393 4.489-1.926 1.168L.31 18.474zm2.602 5.803l1.845-1.114 4.374 5.557-6.22-4.443zm2.034-1.196l3.7-1.26.743 5.566.166 1.547-4.609-5.853zm4.598 4.282l2.572-5.303.801 4.768-3.373.535zm3.315-.319l1.956 2.443-5.061-.531-.15-1.4 3.255-.512zm-3.136 2.11l5.354.558-3.25 2.043-2.104-2.602zm2.41 2.646l3.114-1.957L18.36 31.8h-6.227zm6.53-.045l-3.25-2.043 5.357-.559-2.107 2.602zm2.076-2.8l-5.06.532 1.956-2.442 3.255.515-.15 1.396zm-2.213-7.044l3.134-.2-.715 5.345-2.42-5.145zm2.583 5.476h-.005l.743-5.567 3.703 1.26-4.609 5.855.168-1.547zm.264 1.323l4.367-5.547 1.845 1.114-6.212 4.433zm6.347-4.583l-1.925-1.168 4.392-4.483-2.467 5.65zm2.562-5.872l-5.436.008L29.264 11l1.022 7.241-.003.014z" fill="#fff"/></svg>