<svg width="127" height="134" fill="none" xmlns="http://www.w3.org/2000/svg"><path d="M122.653 45.55L121.061 0l-36.53 33.253L63.5 35.476l-21.05-2.223L5.94 0 4.35 45.505 0 76.362v.103l10.98 25.34.048.106 28.796 20.664L48.978 134h29.044l9.153-11.425 28.797-20.664 10.984-25.304.044-.107-4.347-30.95zm-.827.049l-25.355-.49 23.847-42.677 1.508 43.167zM107.013 95.9l-.032-.022-.044.057-15.835-5.419L103.33 76.63l3.684 19.272zm-2.711-18.61l20.31-.022-16.98 17.445-3.33-17.422zm-.991-.826v.088L85.575 81.2l10.267-35.64.284.15 7.26 30.756h-.075zm-6.253-30.497l23.636.444-16.936 28.008-6.7-28.452zm22.013-43.025L95.909 44.416 85.296 33.671l33.775-30.728zM84.58 34.089l10.58 10.732-30.51-8.611 19.93-2.12zm10.413 11.559l-9.648 33.426L64.6 37.072l30.392 8.575zm-9.49 35.609l-8.49 10.056-12.823-53.2 21.314 43.144zm-8.95 11.114l10.362 22.135-13.709-2.183 3.348-19.952zm-4.072 19.214l-7.495-.133 10.188-15.871-2.693 16.004zm3.86-19.712l.062.21-12.381 19.324-.442.045-.47-.045-12.53-19.334L63.5 38.806l12.842 53.067zm-14.15 19.561l-7.646.133-2.684-16.062 10.33 15.929zM49.969 91.313l-8.45-10.065-17.848-4.703v-.09h-.057l7.243-30.754.283-.151 10.378 35.698L62.81 38.126 49.97 91.313zm-.146.422l-10.149 21.028L36.77 90.9l13.054.835zM23.636 76.62l12.226 13.888-15.817 5.428-.044-.057-.031.022 3.666-19.28zm-4.303 18.085L2.37 77.269l20.31.022-3.347 17.414zm3.892-20.303L6.293 46.394l23.635-.444-6.704 28.452zm18.422 4.663L32.032 45.64l30.366-8.567-20.752 41.993zM62.35 36.21l-30.512 8.61 10.613-10.73 19.9 2.12zm-20.66-2.54L31.079 44.416 7.928 2.943l33.763 30.728zM5.179 45.577L6.686 2.418 30.53 45.096l-25.355.49.004-.01zM.853 76.362l4.259-30.319 18.4 30.422-22.628-.036-.03-.067zm.443.983L19.59 96.14l-8.022 4.89L1.296 77.345zm10.834 24.3l7.685-4.668 18.214 23.268-25.9-18.6zm8.472-5.01l15.406-5.277 3.096 23.308.694 6.477-19.196-24.508zm19.147 17.929l10.715-22.202 3.334 19.961-14.049 2.241zm13.806-1.334l8.145 10.225-21.075-2.223-.628-5.864 13.558-2.138zm-13.058 8.829l22.295 2.338-13.535 8.554-8.76-10.892zm10.038 11.083l12.965-8.193 12.965 8.193h-25.93zm27.19-.191l-13.535-8.554 22.313-2.338-8.777 10.892zm8.65-11.719L65.3 123.455l8.145-10.225 13.558 2.16-.628 5.842zm-9.22-29.497L90.21 90.9l-2.976 22.379-10.078-21.544zm10.759 22.931h-.022l3.095-23.308 15.42 5.276-19.192 24.509.699-6.477zm1.101 5.539l18.183-23.228 7.686 4.668-25.869 18.56zm26.43-19.192l-8.017-4.89 18.29-18.77-10.273 23.66zm10.671-24.584l-22.641.036 18.395-30.408 4.259 30.314-.013.058z" fill="#09162E"/></svg>