<svg width="16" height="16" fill="none" xmlns="http://www.w3.org/2000/svg"><path fill-rule="evenodd" clip-rule="evenodd" d="M13.707 9.561c-.28.176-.608.198-.857.057-.318-.179-.492-.598-.492-1.182V6.691c0-.843-.333-1.443-.89-1.605-.945-.275-1.655.88-1.922 1.314L7.88 9.1V5.8c-.019-.76-.265-1.213-.733-1.35-.31-.091-.774-.055-1.224.634L2.19 11.076A6.583 6.583 0 011.433 8c0-3.61 2.892-6.546 6.447-6.546S14.327 4.391 14.327 8l.002.018v.018c.033.698-.193 1.254-.622 1.525zm2.053-1.56v-.037C15.74 3.568 12.213 0 7.88 0 3.535 0 0 3.589 0 8c0 4.41 3.535 8 7.88 8a7.79 7.79 0 005.358-2.133.734.734 0 00-.188-1.194.708.708 0 00-.787.127 6.373 6.373 0 01-4.383 1.746 6.39 6.39 0 01-4.797-2.18l3.365-5.402v2.49c0 1.197.464 1.584.853 1.697.39.113.984.036 1.609-.979l1.851-3c.06-.097.114-.18.164-.253v1.517c0 1.119.448 2.013 1.229 2.454.704.397 1.589.361 2.31-.094.874-.552 1.345-1.57 1.296-2.796z" fill="#17181B"/></svg>