<svg width="24" height="24" fill="none" xmlns="http://www.w3.org/2000/svg"><path d="M12 2.4a9.572 9.572 0 00-6.111 2.195.8.8 0 00-.29.613A1.182 1.182 0 014.546 6.38a.8.8 0 00-.57.355A9.562 9.562 0 002.4 12a9.594 9.594 0 004.41 8.07.8.8 0 00.815.032A.768.768 0 018 20c.39 0 .698.268.778.625a.8.8 0 00.558.594A9.594 9.594 0 0012 21.6c5.292 0 9.6-4.308 9.6-9.6S17.292 2.4 12 2.4zM12 4c.076 0 .15.009.225.01a10.684 10.684 0 011.631 1.692A1.56 1.56 0 0114.4 5.6 1.6 1.6 0 0116 7.2c0 .52-.253.977-.636 1.269.328.903.528 1.865.592 2.865A2.392 2.392 0 0115.2 16l-.006-.002a10.449 10.449 0 01-2.96 3.991c-.078.002-.155.011-.234.011-.696 0-1.363-.12-2.011-.29-.41-.737-1.091-1.31-1.99-1.31-.2 0-.36.093-.543.14C5.38 17.096 4 14.726 4 12a7.93 7.93 0 011.28-4.31 2.622 2.622 0 001.695-1.9A7.944 7.944 0 0112 4zm-1.6 2.4a1.6 1.6 0 100 3.2c.293 0 .564-.085.8-.222A1.595 1.595 0 0110.4 8c0-.59.324-1.1.8-1.378a1.59 1.59 0 00-.8-.222zM8 11.2a1.6 1.6 0 100 3.2c.293 0 .564-.085.8-.222A1.595 1.595 0 018 12.8c0-.59.324-1.1.8-1.378A1.59 1.59 0 008 11.2z" fill="#B6BAC1"/></svg>