<svg width="16" height="16" fill="none" xmlns="http://www.w3.org/2000/svg"><path fill-rule="evenodd" clip-rule="evenodd" d="M2.84 2.5a2.113 2.113 0 114.19-.387v2.605a12.63 12.63 0 011.744-.002V2.113a2.113 2.113 0 114.19.388l-.572 3.062c1.963.857 3.446 2.345 3.446 4.215v1.131c0 1.538-1.017 2.825-2.44 3.694C11.967 15.48 10.028 16 7.92 16c-2.107 0-4.046-.52-5.48-1.397C1.017 13.734 0 12.447 0 10.91V9.778c0-1.86 1.469-3.343 3.415-4.201L2.84 2.5zm8.82 3.465l.668-3.583a1.467 1.467 0 10-2.908-.269v3.315a11.573 11.573 0 00-1.5-.095 11.97 11.97 0 00-1.536.1v-3.32a1.467 1.467 0 10-2.908.27l.671 3.594c-2.099.78-3.5 2.19-3.5 3.8v1.132c0 2.455 3.256 4.444 7.272 4.444 4.017 0 7.273-1.99 7.273-4.444V9.778c0-1.619-1.416-3.036-3.533-3.813z" fill="#633001"/><path d="M15.192 10.91c0 2.454-3.256 4.444-7.273 4.444-4.017 0-7.273-1.99-7.273-4.445V9.778h14.546v1.131z" fill="#FEDC90"/><path fill-rule="evenodd" clip-rule="evenodd" d="M3.476 2.382a1.467 1.467 0 112.908-.27v3.32a11.8 11.8 0 013.036-.004V2.113a1.467 1.467 0 112.908.27l-.669 3.582c2.117.777 3.533 2.194 3.533 3.813 0 2.454-3.256 4.444-7.273 4.444-4.017 0-7.273-1.99-7.273-4.444 0-1.61 1.402-3.021 3.5-3.8l-.67-3.596z" fill="#D1884F"/><path d="M5.9 9.455c0 .67-.363 1.212-.809 1.212-.446 0-.808-.543-.808-1.212 0-.67.362-1.212.808-1.212.446 0 .808.542.808 1.212zm5.575 0c0 .67-.362 1.212-.808 1.212-.446 0-.808-.543-.808-1.212 0-.67.362-1.212.808-1.212.446 0 .808.542.808 1.212z" fill="#633001"/></svg>