<svg width="24" height="24" fill="none" xmlns="http://www.w3.org/2000/svg"><path d="M11.988.79a.8.8 0 00-.788.81V4a.8.8 0 101.6 0V1.6a.802.802 0 00-.813-.81zm-7.35 3.05a.8.8 0 00-.557 1.373l1.697 1.696A.8.8 0 106.91 5.78l-1.698-1.7a.8.8 0 00-.575-.242zm14.7 0a.8.8 0 00-.55.241L17.09 5.778a.8.8 0 101.13 1.131l1.698-1.696a.8.8 0 00-.582-1.374zM12 6.4a5.6 5.6 0 100 11.2 5.6 5.6 0 000-11.2zM1.6 11.2a.8.8 0 100 1.6H4a.8.8 0 100-1.6H1.6zm18.4 0a.801.801 0 100 1.6h2.4a.8.8 0 100-1.6H20zM6.328 16.85a.8.8 0 00-.55.242l-1.697 1.697a.8.8 0 101.131 1.13l1.697-1.696a.8.8 0 00-.58-1.373zm11.32 0a.8.8 0 00-.557 1.373l1.697 1.697a.8.8 0 101.13-1.131l-1.696-1.697a.8.8 0 00-.574-.242zm-5.66 2.34a.8.8 0 00-.788.81v2.4a.8.8 0 101.6 0V20a.802.802 0 00-.813-.81z" fill="#fff" fill-opacity=".5"/></svg>