<svg width="24" height="24" fill="none" xmlns="http://www.w3.org/2000/svg"><path d="M20.123 3.188c-.26.011-.502.087-.715.173-.2.08-.963.408-2.166.923-1.203.517-2.797 1.2-4.497 1.932l-9.18 3.95c-.073.031-.33.113-.603.326-.272.213-.562.654-.562 1.145 0 .397.189.79.426 1.025.238.236.49.352.705.44L7.195 14.6c.161.494 1.039 3.178 1.242 3.836.135.434.262.706.429.922.083.108.18.202.296.276a.95.95 0 00.15.074l.004.001c.011.005.022.013.034.018.023.008.038.009.069.015.122.04.245.064.354.064.469 0 .755-.258.755-.258l.017-.012 2.408-2.083 2.92 2.763c.042.058.425.584 1.27.584.503 0 .901-.252 1.157-.52.256-.269.415-.55.483-.905v-.002c.063-.335 2.754-14.151 2.754-14.151l-.004.019c.078-.36.1-.695.012-1.025a1.398 1.398 0 00-.6-.818 1.438 1.438 0 00-.822-.21zm-.15 1.671c-.003.024.003.012-.003.04l-.001.009-.002.01s-2.658 13.64-2.756 14.159c.007-.04-.026.038-.06.085-.047-.032-.145-.075-.145-.075l-.015-.017L13 15.297l-2.82 2.437.84-3.359s5.244-5.43 5.56-5.745c.255-.253.308-.341.308-.428 0-.117-.06-.202-.197-.202-.122 0-.287.119-.375.175-1.146.73-6.18 3.664-8.436 4.977-.358-.147-2.85-1.167-3.694-1.511l.011-.005c1.959-.842 5.78-2.488 9.178-3.95 1.7-.73 3.295-1.416 4.497-1.931 1.184-.508 2.007-.857 2.1-.896z" fill="#09162E" fill-opacity=".5"/></svg>