<svg width="24" height="24" fill="none" xmlns="http://www.w3.org/2000/svg"><path d="M22.4 5.55a8.519 8.519 0 01-2.451.672 4.275 4.275 0 001.876-2.361 8.557 8.557 0 01-2.71 1.036 4.268 4.268 0 00-7.271 3.891 12.115 12.115 0 01-8.797-4.46 4.257 4.257 0 00-.577 2.147c0 1.48.753 2.787 1.898 3.551a4.259 4.259 0 01-1.933-.533v.053a4.268 4.268 0 003.423 4.184 4.269 4.269 0 01-1.927.074 4.273 4.273 0 003.987 2.964 8.559 8.559 0 01-6.319 1.767 12.081 12.081 0 006.542 1.917c7.85 0 12.14-6.502 12.14-12.142 0-.184-.003-.368-.011-.552A8.684 8.684 0 0022.4 5.55z" fill="#09162E" fill-opacity=".5"/></svg>