<svg width="16" height="16" fill="none" xmlns="http://www.w3.org/2000/svg"><path d="M12.8 2.133H3.2c-.59 0-1.067.478-1.067 1.067v9.6c0 .59.478 1.067 1.067 1.067h5.333v-4.8h-1.6v-1.6h1.6v-.86c0-1.626.793-2.34 2.145-2.34.647 0 .99.048 1.152.07v1.53h-.922c-.574 0-.775.303-.775.916v.684h1.682l-.228 1.6h-1.454v4.8H12.8c.59 0 1.067-.478 1.067-1.067V3.2c0-.59-.478-1.067-1.067-1.067z" fill="url(#paint0_linear)"/><defs><linearGradient id="paint0_linear" x1="2.133" y1="2.133" x2="15.287" y2="4.033" gradientUnits="userSpaceOnUse"><stop stop-color="#F2BF10"/><stop offset="1" stop-color="#F57777"/></linearGradient></defs></svg>