<svg width="16" height="16" fill="none" xmlns="http://www.w3.org/2000/svg"><path d="M3.2 2.133c-.59 0-1.067.478-1.067 1.067v9.6c0 .59.478 1.067 1.067 1.067h9.6c.59 0 1.067-.478 1.067-1.067V3.2c0-.59-.478-1.067-1.067-1.067H3.2zm0 1.067h9.6v3.2h-1.739a3.727 3.727 0 00-6.122 0H3.2V3.2zm8 1.067v1.066h1.067V4.267H11.2zM8 5.867a2.67 2.67 0 012.667 2.666A2.67 2.67 0 018 11.2a2.67 2.67 0 01-2.667-2.667A2.67 2.67 0 018 5.867zm0 1.066c-.247 0-.477.061-.686.16a.534.534 0 01-.753.753c-.1.21-.161.44-.161.687a1.6 1.6 0 101.6-1.6z" fill="url(#paint0_linear)"/><defs><linearGradient id="paint0_linear" x1="2.133" y1="2.133" x2="15.287" y2="4.033" gradientUnits="userSpaceOnUse"><stop stop-color="#F2BF10"/><stop offset="1" stop-color="#F57777"/></linearGradient></defs></svg>