<svg width="16" height="16" fill="none" xmlns="http://www.w3.org/2000/svg"><path d="M13.416 2.125a1.45 1.45 0 00-.477.116c-.134.053-.643.271-1.444.615-.802.344-1.865.8-2.998 1.288-2.267.974-4.815 2.072-6.12 2.633-.049.021-.22.076-.402.218a1.025 1.025 0 00-.375.763c0 .265.126.527.284.684.159.156.327.234.47.292.521.213 2.138.874 2.443 1 .107.328.692 2.118.828 2.557.09.29.175.47.286.614a.77.77 0 00.197.185c.032.02.066.034.1.049h.003c.007.004.014.01.022.012.016.005.026.006.046.01a.794.794 0 00.237.043.798.798 0 00.503-.172l.011-.008 1.606-1.389 1.946 1.842c.028.039.284.39.847.39.335 0 .6-.168.771-.347.17-.18.277-.367.322-.603v-.001c.042-.224 1.836-9.435 1.836-9.435l-.003.013c.053-.24.067-.463.009-.684a.931.931 0 00-.4-.544.959.959 0 00-.548-.141zm-.1 1.115c-.003.015.002.007-.002.026l-.001.006-.001.006s-1.772 9.093-1.838 9.44c.005-.026-.017.026-.04.057a.702.702 0 00-.096-.05l-.01-.011-2.66-2.516-1.88 1.625.559-2.24s3.497-3.62 3.707-3.83c.17-.168.205-.227.205-.285 0-.078-.04-.135-.13-.135-.082 0-.192.08-.25.117-.765.487-4.12 2.443-5.625 3.318L2.792 7.76c.004-.001.003 0 .007-.003l6.119-2.633 2.998-1.288c.789-.338 1.338-.571 1.4-.596z" fill="url(#paint0_linear)"/><defs><linearGradient id="paint0_linear" x1="1.6" y1="2.124" x2="15.896" y2="4.374" gradientUnits="userSpaceOnUse"><stop stop-color="#F2BF10"/><stop offset="1" stop-color="#F57777"/></linearGradient></defs></svg>