<svg width="16" height="16" fill="none" xmlns="http://www.w3.org/2000/svg"><path d="M14.933 3.7a5.68 5.68 0 01-1.634.448 2.85 2.85 0 001.25-1.574 5.704 5.704 0 01-1.806.69 2.845 2.845 0 00-4.848 2.594 8.076 8.076 0 01-5.864-2.972 2.84 2.84 0 00-.384 1.43c0 .987.502 1.858 1.265 2.368a2.84 2.84 0 01-1.288-.355v.035c0 1.379.98 2.529 2.282 2.79a2.846 2.846 0 01-1.285.049 2.849 2.849 0 002.657 1.976 5.706 5.706 0 01-4.212 1.178 8.055 8.055 0 004.361 1.278c5.233 0 8.094-4.335 8.094-8.095 0-.123-.003-.246-.008-.368a5.79 5.79 0 001.42-1.472z" fill="url(#paint0_linear)"/><defs><linearGradient id="paint0_linear" x1="1.066" y1="2.366" x2="16.45" y2="5.1" gradientUnits="userSpaceOnUse"><stop stop-color="#F2BF10"/><stop offset="1" stop-color="#F57777"/></linearGradient></defs></svg>